<?xml version="1.0" encoding="utf-8"?>
<!-- Generator: Adobe Illustrator 19.0.0, SVG Export Plug-In . SVG Version: 6.00 Build 0)  -->
<svg version="1.0" xmlns="http://www.w3.org/2000/svg" xmlns:xlink="http://www.w3.org/1999/xlink" x="0px" y="0px"
	 viewBox="0 0 50 25" style="enable-background:new 0 0 50 25;" xml:space="preserve">
<style type="text/css">
	.st0{display:none;}
	.st1{display:inline;}
	.st2{fill:url(#XMLID_146_);}
	.st3{fill:#FFFFFF;}
	.st4{fill:none;stroke:#FFFFFF;stroke-width:2;stroke-miterlimit:10;}
	.st5{fill:none;stroke:#FFFFFF;stroke-width:2;stroke-miterlimit:10;stroke-dasharray:4.0148,4.0148;}
	.st6{display:inline;fill:none;stroke:#FFFFFF;stroke-width:2;stroke-miterlimit:10;stroke-dasharray:4,4;}
	.st7{display:inline;fill:none;stroke:#FFFFFF;stroke-width:4;stroke-miterlimit:10;stroke-dasharray:4,4;}
	.st8{fill:none;stroke:#FFFFFF;stroke-width:4;stroke-miterlimit:10;}
	.st9{display:inline;fill:none;stroke:#FFFFFF;stroke-linecap:round;stroke-miterlimit:10;}
</style>
<g id="图层_1" class="st0">
	<g id="XMLID_1_" class="st1">
		<linearGradient id="XMLID_146_" gradientUnits="userSpaceOnUse" x1="-42.1412" y1="-220.0197" x2="655.2051" y2="-220.0197">
			<stop  offset="0" style="stop-color:#CDE5F7;stop-opacity:0.3"/>
			<stop  offset="1" style="stop-color:#9AD7F5"/>
		</linearGradient>
		<path id="XMLID_19_" class="st2" d="M-42.1-81.6L122-207.9c34.5-26.5,82.4-28.1,118.6-4l58.4,38.8c36.2,24,83.9,22.5,118.3-3.8
			l237.8-181.5v276.8H-42.1z"/>
		<path id="XMLID_36_" class="st3" d="M656.4-358.5c0,0,0-0.1,0-0.1c0-0.1,0-0.1,0-0.2c0,0,0-0.1,0-0.1c0,0,0,0,0,0
			c0-0.1,0-0.1,0-0.2c0,0,0-0.1,0-0.1c0,0,0-0.1-0.1-0.1c0,0,0-0.1-0.1-0.1c0,0-0.1-0.1-0.1-0.1c0,0,0-0.1-0.1-0.1
			c0,0-0.1-0.1-0.1-0.1c0,0-0.1,0-0.1-0.1c0,0-0.1-0.1-0.1-0.1c0,0-0.1,0-0.1-0.1c0,0,0,0-0.1,0c0,0-0.1,0-0.1,0c0,0-0.1,0-0.1,0
			c-0.1,0-0.1,0-0.2,0c0,0-0.1,0-0.1,0c-0.1,0-0.1,0-0.2,0c0,0-0.1,0-0.1,0l-24.8,3.7c-0.8,0.1-1.4,0.9-1.3,1.7
			c0.1,0.7,0.7,1.3,1.5,1.3c0.1,0,0.1,0,0.2,0l19.9-2.9L416.5-178c-34,26-80.9,27.5-116.6,3.8l-58.4-38.8
			c-36.9-24.5-85.3-22.9-120.4,4.1L-43.1-82.8c-0.7,0.5-0.8,1.4-0.3,2.1c0.3,0.4,0.7,0.6,1.2,0.6c0.3,0,0.6-0.1,0.9-0.3L123-206.7
			c34.1-26.2,81-27.8,116.9-4l58.4,38.8c36.8,24.4,85,22.9,120.1-3.9l232.9-177.8l-6.9,17.4c-0.3,0.8,0.1,1.6,0.8,1.9
			c0.2,0.1,0.4,0.1,0.6,0.1c0.6,0,1.2-0.4,1.4-0.9l9.1-23.1c0,0,0-0.1,0-0.1c0,0,0-0.1,0-0.2C656.3-358.4,656.3-358.4,656.4-358.5z"
			/>
	</g>
</g>
<g id="图层_2" class="st0">
	<g id="XMLID_2_" class="st1">
		<g id="XMLID_13_">
			<line id="XMLID_16_" class="st4" x1="-43.3" y1="-80.7" x2="-41.4" y2="-81.3"/>
			<line id="XMLID_15_" class="st5" x1="-37.6" y1="-82.5" x2="651.4" y2="-293.9"/>
			<line id="XMLID_14_" class="st4" x1="653.3" y1="-294.5" x2="655.2" y2="-295.1"/>
		</g>
	</g>
	<path id="XMLID_77_" class="st6" d="M52.5,12.5"/>
	<path id="XMLID_76_" class="st6" d="M-27.5,12.5"/>
</g>
<g id="图层_3" class="st0">
	<line id="XMLID_75_" class="st7" x1="-27.5" y1="12.5" x2="52.5" y2="12.5"/>
</g>
<g id="图层_4">
	<line id="XMLID_78_" class="st8" x1="0" y1="12.5" x2="50" y2="12.5"/>
</g>
<g id="图层_5" class="st0">
	<polyline id="XMLID_80_" class="st9" points="13.2,1.5 24.2,12.5 13.2,23.5 	"/>
</g>
</svg>
