<?xml version="1.0" encoding="utf-8"?>
<!-- Generator: Adobe Illustrator 19.0.0, SVG Export Plug-In . SVG Version: 6.00 Build 0)  -->
<svg version="1.0" xmlns="http://www.w3.org/2000/svg" xmlns:xlink="http://www.w3.org/1999/xlink" x="0px" y="0px"
	 viewBox="0 0 700 280" style="enable-background:new 0 0 700 280;" xml:space="preserve">
<style type="text/css">
	.st0{display:none;}
	.st1{display:inline;}
	.st2{fill:url(#XMLID_159_);}
	.st3{fill:#FFFFFF;}
	.st4{fill:none;stroke:#FFFFFF;stroke-width:2;stroke-miterlimit:10;}
	.st5{fill:none;stroke:#FFFFFF;stroke-width:2;stroke-miterlimit:10;stroke-dasharray:4.0148,4.0148;}
	.st6{fill:none;stroke:#FFFFFF;stroke-width:2;stroke-miterlimit:10;stroke-dasharray:4,4;}
	.st7{display:inline;fill:none;stroke:#FFFFFF;stroke-width:4;stroke-miterlimit:10;stroke-dasharray:4,4;}
	.st8{display:inline;fill:none;stroke:#FFFFFF;stroke-width:4;stroke-miterlimit:10;}
	.st9{display:inline;fill:none;stroke:#FFFFFF;stroke-linecap:round;stroke-miterlimit:10;}
</style>
<g id="图层_1" class="st0">
	<g id="XMLID_1_" class="st1">
		<linearGradient id="XMLID_159_" gradientUnits="userSpaceOnUse" x1="1.4964" y1="140.1141" x2="698.8427" y2="140.1141">
			<stop  offset="0" style="stop-color:#CDE5F7;stop-opacity:0.3"/>
			<stop  offset="1" style="stop-color:#9AD7F5"/>
		</linearGradient>
		<path id="XMLID_19_" class="st2" d="M1.5,278.5l164.2-126.2c34.5-26.5,82.4-28.1,118.6-4l58.4,38.8c36.2,24,83.9,22.5,118.3-3.8
			L698.8,1.7v276.8H1.5z"/>
		<path id="XMLID_36_" class="st3" d="M700,1.7c0,0,0-0.1,0-0.1c0-0.1,0-0.1,0-0.2c0,0,0-0.1,0-0.1c0,0,0,0,0,0c0-0.1,0-0.1,0-0.2
			c0,0,0-0.1,0-0.1c0,0,0-0.1-0.1-0.1c0,0,0-0.1-0.1-0.1c0,0-0.1-0.1-0.1-0.1c0,0,0-0.1-0.1-0.1c0,0-0.1-0.1-0.1-0.1
			c0,0-0.1,0-0.1-0.1c0,0-0.1-0.1-0.1-0.1c0,0-0.1,0-0.1-0.1c0,0,0,0-0.1,0c0,0-0.1,0-0.1,0c0,0-0.1,0-0.1,0c-0.1,0-0.1,0-0.2,0
			c0,0-0.1,0-0.1,0c-0.1,0-0.1,0-0.2,0c0,0-0.1,0-0.1,0l-24.8,3.7c-0.8,0.1-1.4,0.9-1.3,1.7c0.1,0.7,0.7,1.3,1.5,1.3
			c0.1,0,0.1,0,0.2,0l19.9-2.9L460.1,182.1c-34,26-80.9,27.5-116.6,3.8L285.1,147c-36.9-24.5-85.3-22.9-120.4,4.1L0.6,277.3
			c-0.7,0.5-0.8,1.4-0.3,2.1c0.3,0.4,0.7,0.6,1.2,0.6c0.3,0,0.6-0.1,0.9-0.3l164.2-126.2c34.1-26.2,81-27.8,116.9-4l58.4,38.8
			c36.8,24.4,85,22.9,120.1-3.9L694.9,6.6L688,24c-0.3,0.8,0.1,1.6,0.8,1.9c0.2,0.1,0.4,0.1,0.6,0.1c0.6,0,1.2-0.4,1.4-0.9L699.9,2
			c0,0,0-0.1,0-0.1c0,0,0-0.1,0-0.2C700,1.8,700,1.7,700,1.7z"/>
	</g>
</g>
<g id="图层_2">
	<g id="XMLID_2_">
		<g id="XMLID_13_">
			<line id="XMLID_16_" class="st4" x1="0.3" y1="279.4" x2="2.2" y2="278.8"/>
			<line id="XMLID_15_" class="st5" x1="6.1" y1="277.7" x2="695" y2="66.2"/>
			<line id="XMLID_14_" class="st4" x1="696.9" y1="65.6" x2="698.8" y2="65.1"/>
		</g>
	</g>
	<path id="XMLID_77_" class="st6" d="M96.1,372.6"/>
	<path id="XMLID_76_" class="st6" d="M16.1,372.6"/>
</g>
<g id="图层_3" class="st0">
	<line id="XMLID_75_" class="st7" x1="43.6" y1="372.6" x2="93.6" y2="372.6"/>
</g>
<g id="图层_4" class="st0">
	<line id="XMLID_78_" class="st8" x1="43.6" y1="372.6" x2="93.6" y2="372.6"/>
</g>
<g id="图层_5" class="st0">
	<polyline id="XMLID_80_" class="st9" points="56.8,361.6 67.8,372.6 56.8,383.6 	"/>
</g>
</svg>
