<?xml version="1.0" encoding="utf-8"?>
<!-- Generator: Adobe Illustrator 19.0.0, SVG Export Plug-In . SVG Version: 6.00 Build 0)  -->
<svg version="1.1" id="图层_1" xmlns="http://www.w3.org/2000/svg" xmlns:xlink="http://www.w3.org/1999/xlink" x="0px" y="0px"
	 viewBox="0 0 60 60" style="enable-background:new 0 0 60 60;" xml:space="preserve">
<style type="text/css">
	.st0{fill:#FFFFFF;}
	.st1{fill:url(#XMLID_62_);}
	.st2{fill:url(#XMLID_63_);}
	.st3{fill:url(#XMLID_64_);}
	.st4{fill:url(#XMLID_65_);}
	.st5{fill:#10376D;}
</style>
<g id="XMLID_1_">
	<polygon id="XMLID_557_" class="st0" points="111.5,34.1 104.7,34.1 112.7,19.8 116.1,25.9 	"/>
	<polygon id="XMLID_556_" class="st0" points="128,34.1 121.2,34.1 112.9,19.3 116.4,13.2 	"/>
	<polygon id="XMLID_555_" class="st0" points="128.6,34.1 125.2,28 137.1,6.6 140.5,12.8 	"/>
	<polygon id="XMLID_554_" class="st0" points="159.8,34.1 153,34.1 137.4,6.1 140.8,0 	"/>
	<g id="XMLID_484_">
		<g id="XMLID_492_">
			<path id="XMLID_519_" class="st0" d="M121,58.6c0,0,0,0-0.1,0h-0.1h-0.4h-0.2c-0.1,0-0.2,0-0.3,0h-0.2h-0.1h0
				c-0.1,0-0.1,0-0.1-0.1c0,0,0.1-0.1,0.3-0.1c0.2,0,0.3,0,0.3-0.1c0,0,0-0.1,0-0.1c0,0-0.1-0.2-0.2-0.5l-0.1-0.2h-1
				c-0.2,0.5-0.3,0.8-0.3,0.9c0,0,0,0.1,0.1,0.1l0.1,0h0.1l0.1,0c0.1,0,0.1,0,0.1,0c0,0-0.1,0.1-0.2,0.1c0,0-0.1,0-0.3,0
				c-0.2,0-0.3,0-0.4,0h-0.1l-0.1,0l-0.1,0h0c-0.1,0-0.1,0-0.1,0c0,0,0-0.1,0.1-0.1c0.1,0,0.1,0,0.2,0c0.1,0,0.1,0,0.2-0.1
				c0,0,0.1-0.3,0.4-0.8c0.1-0.2,0.2-0.4,0.2-0.6c0-0.1,0-0.1,0.1-0.2c0,0,0-0.1,0.1-0.2c0.1-0.2,0.2-0.5,0.3-0.9l0.1-0.3l0-0.1
				c0-0.1,0.1-0.1,0.1-0.1c0,0,0,0.1,0.1,0.2c0.1,0.4,0.5,1.3,1.1,2.8c0.1,0.1,0.1,0.2,0.2,0.2c0,0,0.1,0,0.2,0
				C120.9,58.5,121,58.5,121,58.6z M119.5,57.4l-0.5-1.2c-0.1,0.3-0.3,0.7-0.5,1.2H119.5z"/>
			<path id="XMLID_517_" class="st0" d="M123.1,58.3c0,0.1,0,0.1,0.1,0.1h0.2c0,0,0.1,0,0.1,0v0.1c0,0,0,0.1,0,0.1c0,0-0.2,0-0.5,0
				c-0.3,0-0.4,0-0.5,0c0,0,0,0,0-0.1v-0.1c0,0,0,0,0.1,0h0.2c0.1,0,0.1,0,0.1-0.1c0-0.1,0-0.3,0-0.4v-0.7c0-0.2,0-0.4-0.2-0.5
				c-0.1-0.1-0.2-0.1-0.4-0.1c-0.1,0-0.3,0-0.4,0.2c-0.1,0.1-0.1,0.3-0.1,0.4v1.1c0,0.1,0,0.2,0.1,0.2h0.1c0,0,0.1,0,0.1,0.1v0.1
				c0,0,0,0,0,0c0,0-0.2,0-0.5,0c-0.3,0-0.4,0-0.5,0c0,0,0,0,0,0v-0.1c0,0,0,0,0.1,0h0.2c0.1,0,0.1,0,0.1-0.1v-1.2
				c0-0.2-0.1-0.2-0.2-0.3l0,0c0,0,0,0,0,0v0c0,0,0,0,0-0.1l0.4-0.2c0,0,0.1,0,0.1,0c0,0,0,0,0,0.1l0,0.3h0c0.2-0.2,0.5-0.4,0.7-0.4
				c0.2,0,0.3,0,0.4,0.1c0.2,0.1,0.3,0.4,0.3,0.5V58.3z"/>
			<path id="XMLID_513_" class="st0" d="M123.9,59.8c-0.2-0.1-0.3-0.2-0.3-0.4c0-0.3,0.3-0.5,0.5-0.6v0c-0.2,0-0.3-0.2-0.3-0.4
				c0-0.2,0.3-0.4,0.5-0.5v0c-0.2-0.1-0.5-0.3-0.5-0.8c0-0.3,0.3-0.8,0.9-0.8c0.4,0,0.6,0.2,0.7,0.3c0.1-0.1,0.3-0.2,0.5-0.2
				c0.2,0,0.3,0.1,0.2,0.2c0,0.1-0.1,0.2-0.2,0.2c-0.1,0-0.1,0-0.2-0.1c0,0-0.1,0-0.1,0c0,0-0.1,0-0.2,0c0,0.1,0.1,0.2,0.1,0.4
				c0,0.2-0.1,0.4-0.2,0.6c-0.1,0.2-0.4,0.3-0.6,0.3c-0.1,0-0.2,0-0.3,0c-0.1,0-0.3,0.1-0.3,0.3c0,0.2,0.3,0.2,0.6,0.2
				c0.4,0,0.7,0,0.9,0.2c0.2,0.2,0.2,0.4,0.3,0.5c0,0.2-0.1,0.4-0.3,0.6c-0.1,0.1-0.4,0.2-0.9,0.2C124.4,60,124.1,60,123.9,59.8z
				 M125.6,59.3c0-0.3-0.2-0.5-0.8-0.5l-0.5,0c-0.2,0-0.4,0.2-0.4,0.5c0,0.1,0.1,0.3,0.2,0.4c0.2,0.1,0.4,0.1,0.7,0.1
				C125,59.8,125.6,59.7,125.6,59.3z M125.1,57.1c0-0.2,0-0.4-0.1-0.5c-0.1-0.1-0.2-0.1-0.2-0.1c-0.1,0-0.2,0-0.4,0.1
				c-0.2,0.2-0.2,0.4-0.2,0.6c0,0.2,0.1,0.3,0.2,0.5c0.1,0.1,0.2,0.1,0.3,0.1C125,57.8,125.1,57.4,125.1,57.1z"/>
			<path id="XMLID_510_" class="st0" d="M126.6,57.2c0,0,0,0.1,0,0.2c0,0.5,0.3,0.9,0.7,0.9c0.3,0,0.5-0.2,0.6-0.4c0,0,0,0,0,0
				l0.1,0c0,0,0,0,0,0.1c-0.1,0.2-0.4,0.6-0.8,0.6c-0.3,0-0.6-0.1-0.8-0.4c-0.2-0.3-0.2-0.5-0.2-0.8c0-0.2,0.1-0.5,0.3-0.8
				c0.2-0.2,0.5-0.3,0.7-0.3c0.6,0,0.8,0.6,0.8,0.8c0,0.1-0.1,0.1-0.1,0.1H126.6z M127.4,57.1c0.1,0,0.1,0,0.1-0.1
				c0-0.1-0.1-0.5-0.4-0.5c-0.2,0-0.4,0.2-0.5,0.5H127.4z"/>
			<path id="XMLID_508_" class="st0" d="M129.1,57c0,0.3,0,1.1,0,1.2c0,0.1,0,0.2,0.1,0.2h0.2c0,0,0.1,0,0.1,0v0.1c0,0,0,0.1,0,0.1
				c0,0-0.3,0-0.6,0c-0.3,0-0.5,0-0.6,0c0,0,0,0,0-0.1v-0.1c0,0,0,0,0.1,0h0.2c0.1,0,0.1,0,0.1-0.1c0-0.2,0-1.1,0-1.4v-0.3
				c0-0.4,0-0.8,0-1c0-0.2-0.1-0.3-0.3-0.3l-0.1,0c0,0,0,0,0,0v0c0,0,0,0,0,0c0.2-0.1,0.4-0.2,0.6-0.3c0,0,0.1,0,0.1,0
				c0,0,0,0,0,0.1c0,0.3,0,1.4,0,1.6V57z"/>
			<path id="XMLID_505_" class="st0" d="M133.9,58.6c0,0,0,0-0.1,0h-0.1h-0.4H133c-0.1,0-0.2,0-0.3,0h-0.2h-0.1h0
				c-0.1,0-0.1,0-0.1-0.1c0,0,0.1-0.1,0.3-0.1c0.2,0,0.3,0,0.3-0.1c0,0,0-0.1,0-0.1c0,0-0.1-0.2-0.2-0.5l-0.1-0.2h-1
				c-0.2,0.5-0.3,0.8-0.3,0.9c0,0,0,0.1,0.1,0.1l0.1,0h0.1l0.1,0c0.1,0,0.1,0,0.1,0c0,0-0.1,0.1-0.2,0.1c0,0-0.1,0-0.3,0
				c-0.2,0-0.3,0-0.4,0h-0.1l-0.1,0l-0.1,0h0c-0.1,0-0.1,0-0.1,0c0,0,0-0.1,0.1-0.1c0.1,0,0.1,0,0.2,0c0.1,0,0.1,0,0.2-0.1
				c0,0,0.1-0.3,0.4-0.8c0.1-0.2,0.2-0.4,0.2-0.6c0-0.1,0-0.1,0.1-0.2c0,0,0-0.1,0.1-0.2c0.1-0.2,0.2-0.5,0.3-0.9l0.1-0.3l0-0.1
				c0-0.1,0.1-0.1,0.1-0.1c0,0,0,0.1,0.1,0.2c0.1,0.4,0.5,1.3,1.1,2.8c0.1,0.1,0.1,0.2,0.2,0.2c0,0,0.1,0,0.2,0
				C133.8,58.5,133.9,58.5,133.9,58.6z M132.4,57.4l-0.5-1.2c-0.1,0.3-0.3,0.7-0.5,1.2H132.4z"/>
			<path id="XMLID_503_" class="st0" d="M134.2,57.2c0-0.3,0-0.3-0.2-0.4l-0.1-0.1c0,0,0,0,0,0v0c0,0,0,0,0,0l0.5-0.3
				c0,0,0.1,0,0.1,0c0,0,0,0,0,0.1l0,0.4h0c0.2-0.2,0.4-0.5,0.6-0.5c0.2,0,0.3,0.1,0.3,0.2c0,0.2-0.1,0.3-0.2,0.3
				c-0.1,0-0.1,0-0.2,0c0,0-0.1,0-0.2,0c-0.1,0-0.2,0.1-0.3,0.2c0,0.1-0.1,0.2-0.1,0.2v1.1c0,0.2,0,0.2,0.1,0.2h0.2c0,0,0,0,0,0v0.1
				c0,0,0,0,0,0c0,0-0.3,0-0.5,0c-0.3,0-0.5,0-0.6,0c0,0,0,0,0-0.1v-0.1c0,0,0,0,0.1,0h0.2c0.1,0,0.1,0,0.1-0.1c0-0.2,0-0.4,0-0.6
				V57.2z"/>
			<path id="XMLID_500_" class="st0" d="M135.8,58.3c-0.2-0.3-0.3-0.5-0.3-0.8c0-0.3,0.1-0.6,0.4-0.8c0.3-0.2,0.5-0.2,0.7-0.2
				c0.3,0,0.6,0.1,0.7,0.3c0.2,0.2,0.4,0.5,0.4,0.8c0,0.6-0.5,1.1-1.1,1.1C136.4,58.7,136.1,58.6,135.8,58.3z M137.3,57.5
				c0-0.6-0.4-0.9-0.7-0.9c-0.1,0-0.3,0-0.4,0.2c-0.2,0.2-0.3,0.4-0.3,0.8c0,0.3,0,0.5,0.2,0.7c0.1,0.2,0.3,0.3,0.5,0.3
				C137.1,58.5,137.3,58,137.3,57.5z"/>
			<path id="XMLID_498_" class="st0" d="M140.1,57.5c0,0.2,0,0.5,0,0.6c0,0.2,0.1,0.2,0.1,0.2c0,0,0.1,0,0.2,0c0,0,0.1,0,0.1,0
				l0,0.1c0,0,0,0,0,0l-0.5,0.2c0,0-0.1,0-0.1,0c0,0,0,0,0-0.1l0-0.3h0c-0.1,0.2-0.4,0.4-0.7,0.4c-0.1,0-0.3,0-0.5-0.2
				c-0.2-0.3-0.2-0.4-0.2-1v-0.6c0-0.1-0.1-0.2-0.2-0.2c-0.1,0-0.1,0-0.1,0v-0.1c0,0,0,0,0.1,0h0.5c0,0,0.1,0,0.1,0c0,0,0,0,0.1,0
				c0,0,0.1,0,0.1,0.1c0,0,0,0.3,0,0.6v0.4c0,0.2-0.1,0.5,0.1,0.8c0.1,0.2,0.3,0.2,0.4,0.2c0.1,0,0.3-0.1,0.4-0.3
				c0,0,0.1-0.1,0.1-0.1v-1.2c0-0.1-0.1-0.2-0.2-0.2c-0.1,0-0.1,0-0.1,0v-0.1c0,0,0,0,0.1,0h0.5c0,0,0.1,0,0.1,0c0,0,0,0,0.1,0
				c0,0,0.1,0,0,0.1c0,0,0,0.2,0,0.7V57.5z"/>
			<path id="XMLID_496_" class="st0" d="M142.9,58.3c0,0.1,0,0.1,0.1,0.1h0.2c0,0,0.1,0,0.1,0v0.1c0,0,0,0.1,0,0.1c0,0-0.2,0-0.5,0
				c-0.3,0-0.4,0-0.5,0c0,0,0,0,0-0.1v-0.1c0,0,0,0,0.1,0h0.2c0.1,0,0.1,0,0.1-0.1c0-0.1,0-0.3,0-0.4v-0.7c0-0.2,0-0.4-0.2-0.5
				c-0.1-0.1-0.2-0.1-0.4-0.1c-0.1,0-0.3,0-0.4,0.2c-0.1,0.1-0.1,0.3-0.1,0.4v1.1c0,0.1,0,0.2,0.1,0.2h0.1c0,0,0.1,0,0.1,0.1v0.1
				c0,0,0,0,0,0c0,0-0.2,0-0.5,0c-0.3,0-0.4,0-0.5,0c0,0,0,0,0,0v-0.1c0,0,0,0,0.1,0h0.2c0.1,0,0.1,0,0.1-0.1v-1.2
				c0-0.2-0.1-0.2-0.2-0.3l0,0c0,0,0,0,0,0v0c0,0,0,0,0-0.1l0.4-0.2c0,0,0.1,0,0.1,0c0,0,0,0,0,0.1l0,0.3h0c0.2-0.2,0.5-0.4,0.7-0.4
				c0.2,0,0.3,0,0.4,0.1c0.2,0.1,0.3,0.4,0.3,0.5V58.3z"/>
			<path id="XMLID_493_" class="st0" d="M145.2,55.4c0-0.2,0-0.3-0.3-0.3c0,0,0,0,0,0V55c0,0,0,0,0,0c0.2,0,0.5-0.1,0.6-0.1
				c0,0,0.1,0,0.1,0c0,0,0,0,0,0.1c0,0.3,0,1,0,1.7v1.1c0,0.2,0,0.4,0.1,0.5c0,0.1,0.2,0.1,0.2,0.1c0.1,0,0.1,0,0.1,0l0,0
				c0,0,0,0,0,0.1l-0.6,0.2c0,0-0.1,0-0.1,0l-0.1-0.2c-0.2,0.2-0.5,0.3-0.8,0.3c-0.2,0-0.4,0-0.6-0.2c-0.3-0.3-0.3-0.5-0.3-0.8
				c0-0.3,0.1-0.6,0.4-0.9c0.2-0.2,0.5-0.3,0.8-0.3c0.2,0,0.4,0,0.6,0.1V55.4z M145.2,57.1c0-0.1,0-0.2,0-0.3
				c-0.1-0.1-0.2-0.3-0.5-0.3c-0.2,0-0.3,0-0.5,0.2c-0.2,0.2-0.2,0.5-0.2,0.7c0,0.6,0.4,1,0.7,1c0.3,0,0.5-0.2,0.6-0.3
				c0-0.1,0-0.1,0-0.2V57.1z"/>
		</g>
		<g id="XMLID_485_">
			<g id="XMLID_489_">
				<polygon id="XMLID_491_" class="st0" points="116.8,57 116.8,57.5 102.2,57.5 				"/>
				<polygon id="XMLID_490_" class="st0" points="116.8,58 102.2,57.5 116.8,57.5 				"/>
			</g>
			<g id="XMLID_486_">
				<polygon id="XMLID_488_" class="st0" points="147.1,57 147.1,57.5 161.7,57.5 				"/>
				<polygon id="XMLID_487_" class="st0" points="147.1,58 161.7,57.5 147.1,57.5 				"/>
			</g>
		</g>
	</g>
	<g id="XMLID_176_">
		<polygon id="XMLID_414_" class="st0" points="144.3,47.1 144.3,44.8 135.3,44.8 135.3,46.3 142.6,46.3 142.6,46.5 139.6,48.9 
			137.8,47.4 137.8,47.3 135.3,47.3 138.2,49.9 133.9,53.3 136.3,53.3 139.4,50.9 142.2,53.3 144.7,53.3 140.7,49.9 		"/>
		<polygon id="XMLID_413_" class="st0" points="134.5,45.2 132.9,46.2 132.9,43.1 134.6,43.1 134.6,41.5 132.9,41.5 132.9,39.2 
			131.2,39.2 131.2,41.5 129.5,41.5 129.5,43.1 131.2,43.1 131.2,47.2 129.5,48.1 129.5,49.9 131.2,49 131.2,52.4 130.3,53.3 
			130.3,53.3 132.9,53.3 132.9,48.1 134.5,47.1 		"/>
		<polygon id="XMLID_412_" class="st0" points="144,39.5 135.4,39.5 135.4,44.3 136.8,44.3 136.8,41 142.3,41 142.3,44.2 
			144.3,44.2 144.3,44.2 144,43.2 		"/>
		<polygon id="XMLID_411_" class="st0" points="152.1,41.3 159.7,41.3 159.7,42.6 161.7,42.6 161.3,41.8 161.3,39.8 152.5,39.8 
			152.5,39.2 150.4,39.2 150.4,42.7 152.1,42.7 		"/>
		<polygon id="XMLID_410_" class="st0" points="161.5,50.8 161.5,46.4 147.6,46.4 147.6,50.9 149.3,50.9 149.3,47.9 159.7,47.9 
			159.7,50.8 		"/>
		<polygon id="XMLID_409_" class="st0" points="161.4,44.5 157.1,42.9 156.8,41.8 155,41.8 154.8,42.9 150.4,44.5 150.4,46.2 
			156,44.3 161.4,46.2 		"/>
		<polygon id="XMLID_408_" class="st0" points="149.6,42 149.3,39.2 147,39.2 148.5,42 		"/>
		<polygon id="XMLID_407_" class="st0" points="149.6,42.5 148.5,42.5 147,46.2 149.3,46.2 		"/>
		<polygon id="XMLID_406_" class="st0" points="155.9,50.2 155.3,48.6 153.7,48.6 153.1,50.1 147.4,51.7 147.2,51.8 147.2,53.4 
			154.5,51.5 161.8,53.4 161.8,51.7 		"/>
		<path id="XMLID_403_" class="st0" d="M107.5,39.7L102.2,53l-0.1,0.3h2.1l1.9-4.8h4.6l1.9,4.8h2.2l-5.5-13.5H107.5z M110.1,46.9
			h-3.4l1.7-4.6L110.1,46.9z"/>
		<path id="XMLID_203_" class="st0" d="M121.2,39.7L115.9,53l-0.1,0.3h2.1l1.9-4.8h4.6l1.8,4.6l0.1,0.1h2.2L123,39.7H121.2z
			 M123.8,46.9h-3.4l1.7-4.6L123.8,46.9z"/>
	</g>
</g>
<g id="XMLID_2_">
	
		<linearGradient id="XMLID_62_" gradientUnits="userSpaceOnUse" x1="-19.0138" y1="59.4483" x2="-30.3903" y2="59.4483" gradientTransform="matrix(1 0 0 1 33.1618 -32.486)">
		<stop  offset="0" style="stop-color:#1B284D"/>
		<stop  offset="8.852788e-02" style="stop-color:#1B2951"/>
		<stop  offset="0.213" style="stop-color:#19305B"/>
		<stop  offset="0.3586" style="stop-color:#153C6E"/>
		<stop  offset="0.5192" style="stop-color:#054E8C"/>
		<stop  offset="0.5565" style="stop-color:#005294"/>
		<stop  offset="1" style="stop-color:#2C85C1"/>
	</linearGradient>
	<polygon id="XMLID_60_" class="st1" points="9.6,34.1 2.8,34.1 10.7,19.8 14.1,25.9 	"/>
	
		<linearGradient id="XMLID_63_" gradientUnits="userSpaceOnUse" x1="-7.0438" y1="56.1261" x2="-22.1464" y2="56.1261" gradientTransform="matrix(1 0 0 1 33.1618 -32.486)">
		<stop  offset="0" style="stop-color:#1B284D"/>
		<stop  offset="8.852788e-02" style="stop-color:#1B2951"/>
		<stop  offset="0.213" style="stop-color:#19305B"/>
		<stop  offset="0.3586" style="stop-color:#153C6E"/>
		<stop  offset="0.5192" style="stop-color:#054E8C"/>
		<stop  offset="0.5565" style="stop-color:#005294"/>
		<stop  offset="1" style="stop-color:#2C85C1"/>
	</linearGradient>
	<polygon id="XMLID_59_" class="st2" points="26.1,34.1 19.3,34.1 11,19.3 14.4,13.2 	"/>
	
		<linearGradient id="XMLID_64_" gradientUnits="userSpaceOnUse" x1="5.4045" y1="52.8663" x2="-9.8938" y2="52.8663" gradientTransform="matrix(1 0 0 1 33.1618 -32.486)">
		<stop  offset="0" style="stop-color:#1B284D"/>
		<stop  offset="8.852788e-02" style="stop-color:#1B2951"/>
		<stop  offset="0.213" style="stop-color:#19305B"/>
		<stop  offset="0.3586" style="stop-color:#153C6E"/>
		<stop  offset="0.5192" style="stop-color:#054E8C"/>
		<stop  offset="0.5565" style="stop-color:#005294"/>
		<stop  offset="1" style="stop-color:#2C85C1"/>
	</linearGradient>
	<polygon id="XMLID_58_" class="st3" points="26.7,34.1 23.3,28 35.2,6.6 38.6,12.8 	"/>
	
		<linearGradient id="XMLID_65_" gradientUnits="userSpaceOnUse" x1="24.7086" y1="49.5497" x2="2.2647" y2="49.5497" gradientTransform="matrix(1 0 0 1 33.1618 -32.486)">
		<stop  offset="0" style="stop-color:#1B284D"/>
		<stop  offset="8.852788e-02" style="stop-color:#1B2951"/>
		<stop  offset="0.213" style="stop-color:#19305B"/>
		<stop  offset="0.3586" style="stop-color:#153C6E"/>
		<stop  offset="0.5192" style="stop-color:#054E8C"/>
		<stop  offset="0.5565" style="stop-color:#005294"/>
		<stop  offset="1" style="stop-color:#2C85C1"/>
	</linearGradient>
	<polygon id="XMLID_57_" class="st4" points="57.9,34.1 51,34.1 35.4,6.1 38.8,0 	"/>
	<g id="XMLID_19_">
		<g id="XMLID_27_">
			<path id="XMLID_54_" class="st5" d="M19,58.6c0,0,0,0-0.1,0h-0.1h-0.4h-0.2c-0.1,0-0.2,0-0.3,0h-0.2h-0.1h0c-0.1,0-0.1,0-0.1-0.1
				c0,0,0.1-0.1,0.3-0.1c0.2,0,0.3,0,0.3-0.1c0,0,0-0.1,0-0.1c0,0-0.1-0.2-0.2-0.5l-0.1-0.2h-1c-0.2,0.5-0.3,0.8-0.3,0.9
				c0,0,0,0.1,0.1,0.1l0.1,0h0.1l0.1,0c0.1,0,0.1,0,0.1,0c0,0-0.1,0.1-0.2,0.1c0,0-0.1,0-0.3,0c-0.2,0-0.3,0-0.4,0h-0.1l-0.1,0
				l-0.1,0h0c-0.1,0-0.1,0-0.1,0c0,0,0-0.1,0.1-0.1c0.1,0,0.1,0,0.2,0c0.1,0,0.1,0,0.2-0.1c0,0,0.1-0.3,0.4-0.8
				c0.1-0.2,0.2-0.4,0.2-0.6c0-0.1,0-0.1,0.1-0.2c0,0,0-0.1,0.1-0.2c0.1-0.2,0.2-0.5,0.3-0.9l0.1-0.3l0-0.1c0-0.1,0.1-0.1,0.1-0.1
				c0,0,0,0.1,0.1,0.2c0.1,0.4,0.5,1.3,1.1,2.8c0.1,0.1,0.1,0.2,0.2,0.2c0,0,0.1,0,0.2,0C19,58.5,19,58.5,19,58.6z M17.6,57.4
				l-0.5-1.2c-0.1,0.3-0.3,0.7-0.5,1.2H17.6z"/>
			<path id="XMLID_52_" class="st5" d="M21.2,58.3c0,0.1,0,0.1,0.1,0.1h0.2c0,0,0.1,0,0.1,0v0.1c0,0,0,0.1,0,0.1c0,0-0.2,0-0.5,0
				c-0.3,0-0.4,0-0.5,0c0,0,0,0,0-0.1v-0.1c0,0,0,0,0.1,0h0.2c0.1,0,0.1,0,0.1-0.1c0-0.1,0-0.3,0-0.4v-0.7c0-0.2,0-0.4-0.2-0.5
				c-0.1-0.1-0.2-0.1-0.4-0.1c-0.1,0-0.3,0-0.4,0.2c-0.1,0.1-0.1,0.3-0.1,0.4v1.1c0,0.1,0,0.2,0.1,0.2H20c0,0,0.1,0,0.1,0.1v0.1
				c0,0,0,0,0,0c0,0-0.2,0-0.5,0c-0.3,0-0.4,0-0.5,0c0,0,0,0,0,0v-0.1c0,0,0,0,0.1,0h0.2c0.1,0,0.1,0,0.1-0.1v-1.2
				c0-0.2-0.1-0.2-0.2-0.3l0,0c0,0,0,0,0,0v0c0,0,0,0,0-0.1l0.4-0.2c0,0,0.1,0,0.1,0c0,0,0,0,0,0.1l0,0.3h0c0.2-0.2,0.5-0.4,0.7-0.4
				c0.2,0,0.3,0,0.4,0.1c0.2,0.1,0.3,0.4,0.3,0.5V58.3z"/>
			<path id="XMLID_48_" class="st5" d="M21.9,59.8c-0.2-0.1-0.3-0.2-0.3-0.4c0-0.3,0.3-0.5,0.5-0.6v0c-0.2,0-0.3-0.2-0.3-0.4
				c0-0.2,0.3-0.4,0.5-0.5v0c-0.2-0.1-0.5-0.3-0.5-0.8c0-0.3,0.3-0.8,0.9-0.8c0.4,0,0.6,0.2,0.7,0.3c0.1-0.1,0.3-0.2,0.5-0.2
				c0.2,0,0.3,0.1,0.2,0.2c0,0.1-0.1,0.2-0.2,0.2c-0.1,0-0.1,0-0.2-0.1c0,0-0.1,0-0.1,0c0,0-0.1,0-0.2,0c0,0.1,0.1,0.2,0.1,0.4
				c0,0.2-0.1,0.4-0.2,0.6c-0.1,0.2-0.4,0.3-0.6,0.3c-0.1,0-0.2,0-0.3,0c-0.1,0-0.3,0.1-0.3,0.3c0,0.2,0.3,0.2,0.6,0.2
				c0.4,0,0.7,0,0.9,0.2c0.2,0.2,0.2,0.4,0.3,0.5c0,0.2-0.1,0.4-0.3,0.6c-0.1,0.1-0.4,0.2-0.9,0.2C22.5,60,22.2,60,21.9,59.8z
				 M23.6,59.3c0-0.3-0.2-0.5-0.8-0.5l-0.5,0c-0.2,0-0.4,0.2-0.4,0.5c0,0.1,0.1,0.3,0.2,0.4c0.2,0.1,0.4,0.1,0.7,0.1
				C23.1,59.8,23.7,59.7,23.6,59.3z M23.2,57.1c0-0.2,0-0.4-0.1-0.5c-0.1-0.1-0.2-0.1-0.2-0.1c-0.1,0-0.2,0-0.4,0.1
				c-0.2,0.2-0.2,0.4-0.2,0.6c0,0.2,0.1,0.3,0.2,0.5c0.1,0.1,0.2,0.1,0.3,0.1C23,57.8,23.2,57.4,23.2,57.1z"/>
			<path id="XMLID_45_" class="st5" d="M24.7,57.2c0,0,0,0.1,0,0.2c0,0.5,0.3,0.9,0.7,0.9c0.3,0,0.5-0.2,0.6-0.4c0,0,0,0,0,0l0.1,0
				c0,0,0,0,0,0.1c-0.1,0.2-0.4,0.6-0.8,0.6c-0.3,0-0.6-0.1-0.8-0.4c-0.2-0.3-0.2-0.5-0.2-0.8c0-0.2,0.1-0.5,0.3-0.8
				c0.2-0.2,0.5-0.3,0.7-0.3c0.6,0,0.8,0.6,0.8,0.8c0,0.1-0.1,0.1-0.1,0.1H24.7z M25.5,57.1c0.1,0,0.1,0,0.1-0.1
				c0-0.1-0.1-0.5-0.4-0.5c-0.2,0-0.4,0.2-0.5,0.5H25.5z"/>
			<path id="XMLID_43_" class="st5" d="M27.2,57c0,0.3,0,1.1,0,1.2c0,0.1,0,0.2,0.1,0.2h0.2c0,0,0.1,0,0.1,0v0.1c0,0,0,0.1,0,0.1
				c0,0-0.3,0-0.6,0c-0.3,0-0.5,0-0.6,0c0,0,0,0,0-0.1v-0.1c0,0,0,0,0.1,0h0.2c0.1,0,0.1,0,0.1-0.1c0-0.2,0-1.1,0-1.4v-0.3
				c0-0.4,0-0.8,0-1c0-0.2-0.1-0.3-0.3-0.3l-0.1,0c0,0,0,0,0,0v0c0,0,0,0,0,0c0.2-0.1,0.4-0.2,0.6-0.3c0,0,0.1,0,0.1,0
				c0,0,0,0,0,0.1c0,0.3,0,1.4,0,1.6V57z"/>
			<path id="XMLID_40_" class="st5" d="M31.9,58.6c0,0,0,0-0.1,0h-0.1h-0.4h-0.2c-0.1,0-0.2,0-0.3,0h-0.2h-0.1h0
				c-0.1,0-0.1,0-0.1-0.1c0,0,0.1-0.1,0.3-0.1c0.2,0,0.3,0,0.3-0.1c0,0,0-0.1,0-0.1c0,0-0.1-0.2-0.2-0.5l-0.1-0.2h-1
				c-0.2,0.5-0.3,0.8-0.3,0.9c0,0,0,0.1,0.1,0.1l0.1,0h0.1l0.1,0c0.1,0,0.1,0,0.1,0c0,0-0.1,0.1-0.2,0.1c0,0-0.1,0-0.3,0
				c-0.2,0-0.3,0-0.4,0h-0.1l-0.1,0l-0.1,0h0c-0.1,0-0.1,0-0.1,0c0,0,0-0.1,0.1-0.1c0.1,0,0.1,0,0.2,0c0.1,0,0.1,0,0.2-0.1
				c0,0,0.1-0.3,0.4-0.8c0.1-0.2,0.2-0.4,0.2-0.6c0-0.1,0-0.1,0.1-0.2c0,0,0-0.1,0.1-0.2c0.1-0.2,0.2-0.5,0.3-0.9l0.1-0.3l0-0.1
				c0-0.1,0.1-0.1,0.1-0.1c0,0,0,0.1,0.1,0.2c0.1,0.4,0.5,1.3,1.1,2.8c0.1,0.1,0.1,0.2,0.2,0.2c0,0,0.1,0,0.2,0
				C31.9,58.5,31.9,58.5,31.9,58.6z M30.5,57.4L30,56.2c-0.1,0.3-0.3,0.7-0.5,1.2H30.5z"/>
			<path id="XMLID_38_" class="st5" d="M32.2,57.2c0-0.3,0-0.3-0.2-0.4l-0.1-0.1c0,0,0,0,0,0v0c0,0,0,0,0,0l0.5-0.3c0,0,0.1,0,0.1,0
				c0,0,0,0,0,0.1l0,0.4h0c0.2-0.2,0.4-0.5,0.6-0.5c0.2,0,0.3,0.1,0.3,0.2c0,0.2-0.1,0.3-0.2,0.3c-0.1,0-0.1,0-0.2,0
				c0,0-0.1,0-0.2,0c-0.1,0-0.2,0.1-0.3,0.2c0,0.1-0.1,0.2-0.1,0.2v1.1c0,0.2,0,0.2,0.1,0.2H33c0,0,0,0,0,0v0.1c0,0,0,0,0,0
				c0,0-0.3,0-0.5,0c-0.3,0-0.5,0-0.6,0c0,0,0,0,0-0.1v-0.1c0,0,0,0,0.1,0h0.2c0.1,0,0.1,0,0.1-0.1c0-0.2,0-0.4,0-0.6V57.2z"/>
			<path id="XMLID_35_" class="st5" d="M33.9,58.3c-0.2-0.3-0.3-0.5-0.3-0.8c0-0.3,0.1-0.6,0.4-0.8c0.3-0.2,0.5-0.2,0.7-0.2
				c0.3,0,0.6,0.1,0.7,0.3c0.2,0.2,0.4,0.5,0.4,0.8c0,0.6-0.5,1.1-1.1,1.1C34.5,58.7,34.1,58.6,33.9,58.3z M35.4,57.5
				c0-0.6-0.4-0.9-0.7-0.9c-0.1,0-0.3,0-0.4,0.2c-0.2,0.2-0.3,0.4-0.3,0.8c0,0.3,0,0.5,0.2,0.7c0.1,0.2,0.3,0.3,0.5,0.3
				C35.2,58.5,35.4,58,35.4,57.5z"/>
			<path id="XMLID_33_" class="st5" d="M38.2,57.5c0,0.2,0,0.5,0,0.6c0,0.2,0.1,0.2,0.1,0.2c0,0,0.1,0,0.2,0c0,0,0.1,0,0.1,0l0,0.1
				c0,0,0,0,0,0L38,58.6c0,0-0.1,0-0.1,0c0,0,0,0,0-0.1l0-0.3h0c-0.1,0.2-0.4,0.4-0.7,0.4c-0.1,0-0.3,0-0.5-0.2
				c-0.2-0.3-0.2-0.4-0.2-1v-0.6c0-0.1-0.1-0.2-0.2-0.2c-0.1,0-0.1,0-0.1,0v-0.1c0,0,0,0,0.1,0h0.5c0,0,0.1,0,0.1,0c0,0,0,0,0.1,0
				c0,0,0.1,0,0.1,0.1c0,0,0,0.3,0,0.6v0.4c0,0.2-0.1,0.5,0.1,0.8c0.1,0.2,0.3,0.2,0.4,0.2c0.1,0,0.3-0.1,0.4-0.3
				c0,0,0.1-0.1,0.1-0.1v-1.2c0-0.1-0.1-0.2-0.2-0.2c-0.1,0-0.1,0-0.1,0v-0.1c0,0,0,0,0.1,0H38c0,0,0.1,0,0.1,0c0,0,0,0,0.1,0
				c0,0,0.1,0,0,0.1c0,0,0,0.2,0,0.7V57.5z"/>
			<path id="XMLID_31_" class="st5" d="M41,58.3c0,0.1,0,0.1,0.1,0.1h0.2c0,0,0.1,0,0.1,0v0.1c0,0,0,0.1,0,0.1c0,0-0.2,0-0.5,0
				c-0.3,0-0.4,0-0.5,0c0,0,0,0,0-0.1v-0.1c0,0,0,0,0.1,0h0.2c0.1,0,0.1,0,0.1-0.1c0-0.1,0-0.3,0-0.4v-0.7c0-0.2,0-0.4-0.2-0.5
				c-0.1-0.1-0.2-0.1-0.4-0.1c-0.1,0-0.3,0-0.4,0.2c-0.1,0.1-0.1,0.3-0.1,0.4v1.1c0,0.1,0,0.2,0.1,0.2h0.1c0,0,0.1,0,0.1,0.1v0.1
				c0,0,0,0,0,0c0,0-0.2,0-0.5,0c-0.3,0-0.4,0-0.5,0c0,0,0,0,0,0v-0.1c0,0,0,0,0.1,0h0.2c0.1,0,0.1,0,0.1-0.1v-1.2
				c0-0.2-0.1-0.2-0.2-0.3l0,0c0,0,0,0,0,0v0c0,0,0,0,0-0.1l0.4-0.2c0,0,0.1,0,0.1,0c0,0,0,0,0,0.1l0,0.3h0c0.2-0.2,0.5-0.4,0.7-0.4
				c0.2,0,0.3,0,0.4,0.1c0.2,0.1,0.3,0.4,0.3,0.5V58.3z"/>
			<path id="XMLID_28_" class="st5" d="M43.3,55.4c0-0.2,0-0.3-0.3-0.3c0,0,0,0,0,0V55c0,0,0,0,0,0c0.2,0,0.5-0.1,0.6-0.1
				c0,0,0.1,0,0.1,0c0,0,0,0,0,0.1c0,0.3,0,1,0,1.7v1.1c0,0.2,0,0.4,0.1,0.5c0,0.1,0.2,0.1,0.2,0.1c0.1,0,0.1,0,0.1,0l0,0
				c0,0,0,0,0,0.1l-0.6,0.2c0,0-0.1,0-0.1,0l-0.1-0.2c-0.2,0.2-0.5,0.3-0.8,0.3c-0.2,0-0.4,0-0.6-0.2c-0.3-0.3-0.3-0.5-0.3-0.8
				c0-0.3,0.1-0.6,0.4-0.9c0.2-0.2,0.5-0.3,0.8-0.3c0.2,0,0.4,0,0.6,0.1V55.4z M43.3,57.1c0-0.1,0-0.2,0-0.3
				c-0.1-0.1-0.2-0.3-0.5-0.3c-0.2,0-0.3,0-0.5,0.2C42,56.9,42,57.2,42,57.4c0,0.6,0.4,1,0.7,1c0.3,0,0.5-0.2,0.6-0.3
				c0-0.1,0-0.1,0-0.2V57.1z"/>
		</g>
		<g id="XMLID_20_">
			<g id="XMLID_24_">
				<polygon id="XMLID_26_" class="st5" points="14.8,57 14.8,57.5 0.3,57.5 				"/>
				<polygon id="XMLID_25_" class="st5" points="14.8,58 0.3,57.5 14.8,57.5 				"/>
			</g>
			<g id="XMLID_21_">
				<polygon id="XMLID_23_" class="st5" points="45.2,57 45.2,57.5 59.7,57.5 				"/>
				<polygon id="XMLID_22_" class="st5" points="45.2,58 59.7,57.5 45.2,57.5 				"/>
			</g>
		</g>
	</g>
	<g id="XMLID_3_">
		<polygon id="XMLID_18_" class="st5" points="42.4,47.1 42.4,44.8 33.4,44.8 33.4,46.3 40.7,46.3 40.7,46.5 37.6,48.9 35.9,47.4 
			35.9,47.3 33.4,47.3 36.3,49.9 31.9,53.3 34.4,53.3 37.5,50.9 40.3,53.3 42.8,53.3 38.8,49.9 		"/>
		<polygon id="XMLID_17_" class="st5" points="32.6,45.2 31,46.2 31,43.1 32.7,43.1 32.7,41.5 31,41.5 31,39.2 29.2,39.2 29.2,41.5 
			27.6,41.5 27.6,43.1 29.2,43.1 29.2,47.2 27.6,48.1 27.6,49.9 29.2,49 29.2,52.4 28.3,53.3 28.3,53.3 31,53.3 31,48.1 32.6,47.1 
					"/>
		<polygon id="XMLID_16_" class="st5" points="42.1,39.5 33.4,39.5 33.4,44.3 34.8,44.3 34.8,41 40.4,41 40.4,44.2 42.4,44.2 
			42.4,44.2 42.1,43.2 		"/>
		<polygon id="XMLID_15_" class="st5" points="50.1,41.3 57.8,41.3 57.8,42.6 59.8,42.6 59.4,41.8 59.4,39.8 50.6,39.8 50.6,39.2 
			48.4,39.2 48.4,42.7 50.1,42.7 		"/>
		<polygon id="XMLID_14_" class="st5" points="59.5,50.8 59.5,46.4 45.7,46.4 45.7,50.9 47.4,50.9 47.4,47.9 57.8,47.9 57.8,50.8 		
			"/>
		<polygon id="XMLID_13_" class="st5" points="59.5,44.5 55.1,42.9 54.8,41.8 53.1,41.8 52.8,42.9 48.4,44.5 48.4,46.2 54.1,44.3 
			59.5,46.2 		"/>
		<polygon id="XMLID_12_" class="st5" points="47.6,42 47.3,39.2 45.1,39.2 46.5,42 		"/>
		<polygon id="XMLID_11_" class="st5" points="47.6,42.5 46.5,42.5 45,46.2 47.3,46.2 		"/>
		<polygon id="XMLID_10_" class="st5" points="54,50.2 53.4,48.6 51.7,48.6 51.2,50.1 45.4,51.7 45.3,51.8 45.3,53.4 52.6,51.5 
			59.9,53.4 59.9,51.7 		"/>
		<path id="XMLID_7_" class="st5" d="M5.6,39.7L0.3,53l-0.1,0.3h2.1l1.9-4.8h4.6l1.9,4.8h2.2L7.4,39.7H5.6z M8.2,46.9H4.8l1.7-4.6
			L8.2,46.9z"/>
		<path id="XMLID_4_" class="st5" d="M19.3,39.7L13.9,53l-0.1,0.3h2.1l1.9-4.8h4.6l1.8,4.6l0.1,0.1h2.2l-5.5-13.5H19.3z M21.9,46.9
			h-3.4l1.7-4.6L21.9,46.9z"/>
	</g>
</g>
</svg>
